<svg xmlns="http://www.w3.org/2000/svg" xmlns:xlink="http://www.w3.org/1999/xlink" width="562.13" height="500">
  <defs>
    <path id="a" d="M165.13 0H397a49.2 49.2 0 0 1 42.62 24.6l115.92 200.8a49.2 49.2 0 0 1 0 49.2L439.61 475.4a49.2 49.2 0 0 1-42.62 24.6H165.13a49.2 49.2 0 0 1-42.6-24.6L6.58 274.6a49.2 49.2 0 0 1 0-49.2L122.52 24.6A49.2 49.2 0 0 1 165.13 0Z"/>
  </defs>
  <g fill="none" fill-rule="evenodd">
    <mask id="b" fill="#fff">
      <use xlink:href="#a"/>
    </mask>
    <use xlink:href="#a" fill="#000"/>
    <g mask="url(#b)">
      <path fill="#89BA40" d="m428.8-3.68 146.66 254.03h-.4L428.5 504.2H135.97l-.2.35-.2-.35h-.4l.2-.35L-10.9 250.53 135.66-3.33l-.2-.35z"/>
      <path fill="#000" fill-opacity=".5" d="M281.83 250.18h293.33L428.49 504.2H135.16z"/>
      <path fill="#000" fill-opacity=".3" d="m428.8-3.69 146.67 254.04H282.13L135.47-3.69z"/>
    </g>
  </g>
</svg>